<mxfile host="app.diagrams.net" agent="Mozilla/5.0 (Windows NT 10.0; Win64; x64) AppleWebKit/537.36 (KHTML, like Gecko) Chrome/133.0.0.0 Safari/537.36 OPR/118.0.0.0" version="27.0.6">
  <diagram name="PÃ¡gina-1" id="bdQIcGKAEdbMdTS_5JnG">
    <mxGraphModel dx="1109" dy="656" grid="1" gridSize="10" guides="1" tooltips="1" connect="1" arrows="1" fold="1" page="1" pageScale="1" pageWidth="827" pageHeight="1169" math="0" shadow="0">
      <root>
        <mxCell id="0" />
        <mxCell id="1" parent="0" />
        <mxCell id="Kli_sDknE5q05ekALt0p-78" value="Modelo" style="shape=umlFrame;whiteSpace=wrap;html=1;pointerEvents=0;" vertex="1" parent="1">
          <mxGeometry x="10" y="60" width="610" height="550" as="geometry" />
        </mxCell>
        <mxCell id="Kli_sDknE5q05ekALt0p-79" value="&lt;p style=&quot;margin:0px;margin-top:4px;text-align:center;&quot;&gt;&lt;b&gt;Cliente&lt;/b&gt;&lt;/p&gt;&lt;hr size=&quot;1&quot; style=&quot;border-style:solid;&quot;&gt;&lt;p style=&quot;margin:0px;margin-left:4px;&quot;&gt;- id: String&lt;/p&gt;&lt;p style=&quot;margin:0px;margin-left:4px;&quot;&gt;- nombre: String&lt;/p&gt;&lt;hr size=&quot;1&quot; style=&quot;border-style:solid;&quot;&gt;&lt;p style=&quot;margin:0px;margin-left:4px;&quot;&gt;&lt;br&gt;&lt;/p&gt;" style="verticalAlign=top;align=left;overflow=fill;html=1;whiteSpace=wrap;" vertex="1" parent="1">
          <mxGeometry x="80" y="100" width="160" height="80" as="geometry" />
        </mxCell>
        <mxCell id="Kli_sDknE5q05ekALt0p-80" value="&lt;p style=&quot;margin:0px;margin-top:4px;text-align:center;&quot;&gt;&lt;b&gt;Venta&lt;/b&gt;&lt;/p&gt;&lt;hr size=&quot;1&quot; style=&quot;border-style:solid;&quot;&gt;&lt;p style=&quot;margin:0px;margin-left:4px;&quot;&gt;- numeroFactura: String&lt;/p&gt;&lt;p style=&quot;margin:0px;margin-left:4px;&quot;&gt;- cliente: Cliente&lt;/p&gt;&lt;p style=&quot;margin:0px;margin-left:4px;&quot;&gt;- fecha: LocalDate&lt;/p&gt;&lt;p style=&quot;margin:0px;margin-left:4px;&quot;&gt;- items List&amp;lt;ItemVenta&amp;gt;&lt;/p&gt;&lt;hr size=&quot;1&quot; style=&quot;border-style:solid;&quot;&gt;&lt;p style=&quot;margin:0px;margin-left:4px;&quot;&gt;+ calcularTotales(): void&lt;/p&gt;" style="verticalAlign=top;align=left;overflow=fill;html=1;whiteSpace=wrap;" vertex="1" parent="1">
          <mxGeometry x="80" y="250" width="160" height="120" as="geometry" />
        </mxCell>
        <mxCell id="Kli_sDknE5q05ekALt0p-81" value="" style="endArrow=block;startArrow=block;endFill=1;startFill=1;html=1;rounded=0;entryX=0.5;entryY=1;entryDx=0;entryDy=0;exitX=0.5;exitY=0;exitDx=0;exitDy=0;" edge="1" parent="1" source="Kli_sDknE5q05ekALt0p-80" target="Kli_sDknE5q05ekALt0p-79">
          <mxGeometry width="160" relative="1" as="geometry">
            <mxPoint x="170" y="330" as="sourcePoint" />
            <mxPoint x="330" y="330" as="targetPoint" />
          </mxGeometry>
        </mxCell>
        <mxCell id="Kli_sDknE5q05ekALt0p-82" value="&lt;font style=&quot;font-size: 9px;&quot;&gt;1&lt;/font&gt;" style="text;html=1;align=center;verticalAlign=middle;resizable=0;points=[];autosize=1;strokeColor=none;fillColor=none;" vertex="1" parent="1">
          <mxGeometry x="135" y="170" width="30" height="30" as="geometry" />
        </mxCell>
        <mxCell id="Kli_sDknE5q05ekALt0p-83" value="&lt;font style=&quot;font-size: 9px;&quot;&gt;0..*&lt;/font&gt;" style="text;html=1;align=center;verticalAlign=middle;resizable=0;points=[];autosize=1;strokeColor=none;fillColor=none;" vertex="1" parent="1">
          <mxGeometry x="130" y="218" width="40" height="30" as="geometry" />
        </mxCell>
        <mxCell id="Kli_sDknE5q05ekALt0p-84" value="&lt;p style=&quot;margin:0px;margin-top:4px;text-align:center;&quot;&gt;&lt;b&gt;ItemVenta&lt;/b&gt;&lt;/p&gt;&lt;hr size=&quot;1&quot; style=&quot;border-style:solid;&quot;&gt;&lt;p style=&quot;margin:0px;margin-left:4px;&quot;&gt;- producto: Producto&lt;/p&gt;&lt;p style=&quot;margin:0px;margin-left:4px;&quot;&gt;- cantidad: int&lt;/p&gt;&lt;p style=&quot;margin:0px;margin-left:4px;&quot;&gt;- precioUnitario: double&lt;/p&gt;&lt;p style=&quot;margin:0px;margin-left:4px;&quot;&gt;- total: double&lt;/p&gt;&lt;p style=&quot;margin:0px;margin-left:4px;&quot;&gt;- aumento: double&lt;/p&gt;&lt;p style=&quot;margin:0px;margin-left:4px;&quot;&gt;- reduccion: double&lt;/p&gt;&lt;hr size=&quot;1&quot; style=&quot;border-style:solid;&quot;&gt;&lt;p style=&quot;margin:0px;margin-left:4px;&quot;&gt;+ calcularTotales(): void&lt;/p&gt;" style="verticalAlign=top;align=left;overflow=fill;html=1;whiteSpace=wrap;" vertex="1" parent="1">
          <mxGeometry x="30" y="430" width="160" height="165" as="geometry" />
        </mxCell>
        <mxCell id="Kli_sDknE5q05ekALt0p-85" value="&lt;font style=&quot;font-size: 9px;&quot;&gt;1&lt;/font&gt;" style="text;html=1;align=center;verticalAlign=middle;resizable=0;points=[];autosize=1;strokeColor=none;fillColor=none;" vertex="1" parent="1">
          <mxGeometry x="130" y="360" width="30" height="30" as="geometry" />
        </mxCell>
        <mxCell id="Kli_sDknE5q05ekALt0p-86" value="&lt;font style=&quot;font-size: 9px;&quot;&gt;1..*&lt;/font&gt;" style="text;html=1;align=center;verticalAlign=middle;resizable=0;points=[];autosize=1;strokeColor=none;fillColor=none;" vertex="1" parent="1">
          <mxGeometry x="90" y="400" width="40" height="30" as="geometry" />
        </mxCell>
        <mxCell id="Kli_sDknE5q05ekALt0p-87" value="" style="endArrow=block;startArrow=block;endFill=1;startFill=1;html=1;rounded=0;entryX=0.5;entryY=1;entryDx=0;entryDy=0;exitX=0.5;exitY=0;exitDx=0;exitDy=0;" edge="1" parent="1" source="Kli_sDknE5q05ekALt0p-84" target="Kli_sDknE5q05ekALt0p-80">
          <mxGeometry width="160" relative="1" as="geometry">
            <mxPoint x="159.6" y="450" as="sourcePoint" />
            <mxPoint x="159.6" y="360" as="targetPoint" />
          </mxGeometry>
        </mxCell>
        <mxCell id="Kli_sDknE5q05ekALt0p-88" value="&lt;p style=&quot;margin:0px;margin-top:4px;text-align:center;&quot;&gt;&lt;b&gt;Producto&lt;/b&gt;&lt;/p&gt;&lt;hr size=&quot;1&quot; style=&quot;border-style:solid;&quot;&gt;&lt;p style=&quot;margin:0px;margin-left:4px;&quot;&gt;- codigo: String&lt;br&gt;&lt;/p&gt;&lt;p style=&quot;margin:0px;margin-left:4px;&quot;&gt;- descripcion: String&lt;/p&gt;&lt;p style=&quot;margin:0px;margin-left:4px;&quot;&gt;- precio: double&lt;/p&gt;&lt;hr size=&quot;1&quot; style=&quot;border-style:solid;&quot;&gt;&lt;p style=&quot;margin:0px;margin-left:4px;&quot;&gt;+ calcularPrecioVenta(): double&lt;/p&gt;" style="verticalAlign=top;align=left;overflow=fill;html=1;whiteSpace=wrap;" vertex="1" parent="1">
          <mxGeometry x="310" y="248" width="180" height="120" as="geometry" />
        </mxCell>
        <mxCell id="Kli_sDknE5q05ekALt0p-89" value="&lt;p style=&quot;margin:0px;margin-top:4px;text-align:center;&quot;&gt;&lt;b&gt;Perecedero&lt;/b&gt;&lt;/p&gt;&lt;hr size=&quot;1&quot; style=&quot;border-style:solid;&quot;&gt;&lt;p style=&quot;margin:0px;margin-left:4px;&quot;&gt;- diasCaducar: int&lt;br&gt;&lt;/p&gt;&lt;hr size=&quot;1&quot; style=&quot;border-style:solid;&quot;&gt;&lt;p style=&quot;margin:0px;margin-left:4px;&quot;&gt;+ calcularPrecioVenta(): double&lt;/p&gt;" style="verticalAlign=top;align=left;overflow=fill;html=1;whiteSpace=wrap;" vertex="1" parent="1">
          <mxGeometry x="210" y="440" width="180" height="90" as="geometry" />
        </mxCell>
        <mxCell id="Kli_sDknE5q05ekALt0p-90" value="&lt;p style=&quot;margin:0px;margin-top:4px;text-align:center;&quot;&gt;&lt;b&gt;NoPerecedero&lt;/b&gt;&lt;/p&gt;&lt;hr size=&quot;1&quot; style=&quot;border-style:solid;&quot;&gt;&lt;p style=&quot;margin:0px;margin-left:4px;&quot;&gt;- tipo: int&lt;br&gt;&lt;/p&gt;&lt;hr size=&quot;1&quot; style=&quot;border-style:solid;&quot;&gt;&lt;p style=&quot;margin:0px;margin-left:4px;&quot;&gt;+ calcularPrecioVenta(): double&lt;/p&gt;" style="verticalAlign=top;align=left;overflow=fill;html=1;whiteSpace=wrap;" vertex="1" parent="1">
          <mxGeometry x="410" y="440" width="180" height="90" as="geometry" />
        </mxCell>
        <mxCell id="Kli_sDknE5q05ekALt0p-91" value="es un" style="endArrow=block;endSize=16;endFill=0;html=1;rounded=0;entryX=0.25;entryY=1;entryDx=0;entryDy=0;exitX=0.5;exitY=0;exitDx=0;exitDy=0;" edge="1" parent="1" source="Kli_sDknE5q05ekALt0p-89" target="Kli_sDknE5q05ekALt0p-88">
          <mxGeometry width="160" relative="1" as="geometry">
            <mxPoint x="240" y="590" as="sourcePoint" />
            <mxPoint x="400" y="590" as="targetPoint" />
          </mxGeometry>
        </mxCell>
        <mxCell id="Kli_sDknE5q05ekALt0p-92" value="es un" style="endArrow=block;endSize=16;endFill=0;html=1;rounded=0;entryX=0.75;entryY=1;entryDx=0;entryDy=0;exitX=0.5;exitY=0;exitDx=0;exitDy=0;" edge="1" parent="1" source="Kli_sDknE5q05ekALt0p-90" target="Kli_sDknE5q05ekALt0p-88">
          <mxGeometry width="160" relative="1" as="geometry">
            <mxPoint x="310" y="450" as="sourcePoint" />
            <mxPoint x="365" y="378" as="targetPoint" />
          </mxGeometry>
        </mxCell>
        <mxCell id="Kli_sDknE5q05ekALt0p-93" value="" style="endArrow=open;endSize=12;dashed=1;html=1;rounded=0;entryX=0;entryY=1;entryDx=0;entryDy=0;exitX=1;exitY=0;exitDx=0;exitDy=0;" edge="1" parent="1" source="Kli_sDknE5q05ekALt0p-84" target="Kli_sDknE5q05ekALt0p-88">
          <mxGeometry width="160" relative="1" as="geometry">
            <mxPoint x="130" y="520" as="sourcePoint" />
            <mxPoint x="290" y="520" as="targetPoint" />
          </mxGeometry>
        </mxCell>
        <mxCell id="Kli_sDknE5q05ekALt0p-94" value="Controlador" style="shape=umlFrame;whiteSpace=wrap;html=1;pointerEvents=0;width=80;height=30;" vertex="1" parent="1">
          <mxGeometry x="660" y="70" width="370" height="190" as="geometry" />
        </mxCell>
        <mxCell id="Kli_sDknE5q05ekALt0p-95" value="&lt;p style=&quot;margin:0px;margin-top:4px;text-align:center;&quot;&gt;&lt;b&gt;ControladorTienda&lt;/b&gt;&lt;/p&gt;&lt;hr size=&quot;1&quot; style=&quot;border-style:solid;&quot;&gt;&lt;p style=&quot;margin:0px;margin-left:4px;&quot;&gt;- productos: List&amp;lt;Producto&amp;gt;&lt;br&gt;&lt;/p&gt;&lt;p style=&quot;margin:0px;margin-left:4px;&quot;&gt;- ventas: List&amp;lt;Venta&amp;gt;&lt;/p&gt;&lt;hr size=&quot;1&quot; style=&quot;border-style:solid;&quot;&gt;&lt;p style=&quot;margin:0px;margin-left:4px;&quot;&gt;+ agregarProducto(p: Producto): void&lt;/p&gt;&lt;p style=&quot;margin:0px;margin-left:4px;&quot;&gt;+ vender (cliente: Cliente, items: List&amp;lt;ItemVenta&amp;gt;): void&lt;/p&gt;&lt;p style=&quot;margin:0px;margin-left:4px;&quot;&gt;+ consultarProductos(): List&amp;lt;Producto&amp;gt;&lt;/p&gt;&lt;p style=&quot;margin:0px;margin-left:4px;&quot;&gt;+generarInforme(): void&lt;/p&gt;" style="verticalAlign=top;align=left;overflow=fill;html=1;whiteSpace=wrap;" vertex="1" parent="1">
          <mxGeometry x="690" y="108" width="310" height="134" as="geometry" />
        </mxCell>
        <mxCell id="Kli_sDknE5q05ekALt0p-96" value="" style="endArrow=open;endSize=12;dashed=1;html=1;rounded=0;entryX=0.75;entryY=0;entryDx=0;entryDy=0;exitX=0;exitY=0.75;exitDx=0;exitDy=0;" edge="1" parent="1" source="Kli_sDknE5q05ekALt0p-95" target="Kli_sDknE5q05ekALt0p-88">
          <mxGeometry width="160" relative="1" as="geometry">
            <mxPoint x="470" y="360" as="sourcePoint" />
            <mxPoint x="630" y="360" as="targetPoint" />
            <Array as="points">
              <mxPoint x="500" y="210" />
            </Array>
          </mxGeometry>
        </mxCell>
        <mxCell id="Kli_sDknE5q05ekALt0p-97" value="" style="endArrow=open;endSize=12;dashed=1;html=1;rounded=0;entryX=1;entryY=0;entryDx=0;entryDy=0;exitX=0;exitY=0.5;exitDx=0;exitDy=0;" edge="1" parent="1" source="Kli_sDknE5q05ekALt0p-95" target="Kli_sDknE5q05ekALt0p-80">
          <mxGeometry width="160" relative="1" as="geometry">
            <mxPoint x="700" y="214" as="sourcePoint" />
            <mxPoint x="455" y="258" as="targetPoint" />
            <Array as="points">
              <mxPoint x="400" y="175" />
            </Array>
          </mxGeometry>
        </mxCell>
        <mxCell id="Kli_sDknE5q05ekALt0p-98" value="Vista" style="shape=umlFrame;whiteSpace=wrap;html=1;pointerEvents=0;" vertex="1" parent="1">
          <mxGeometry x="660" y="302.5" width="370" height="145" as="geometry" />
        </mxCell>
        <mxCell id="Kli_sDknE5q05ekALt0p-99" value="&lt;p style=&quot;margin:0px;margin-top:4px;text-align:center;&quot;&gt;&lt;b&gt;VistaConsola&lt;/b&gt;&lt;/p&gt;&lt;hr size=&quot;1&quot; style=&quot;border-style:solid;&quot;&gt;&lt;p style=&quot;margin:0px;margin-left:4px;&quot;&gt;+ agregarProducto(productos: List&amp;lt;Producto&amp;gt;): void&lt;/p&gt;&lt;p style=&quot;margin:0px;margin-left:4px;&quot;&gt;+ mostrarFactura(venta: Venta): void&lt;/p&gt;&lt;p style=&quot;margin:0px;margin-left:4px;&quot;&gt;+ mostrarInformeVentas(ventas: List&amp;lt;Venta&amp;gt;): void&lt;/p&gt;&lt;p style=&quot;margin:0px;margin-left:4px;&quot;&gt;+ mostrarMenu(): void&lt;/p&gt;" style="verticalAlign=top;align=left;overflow=fill;html=1;whiteSpace=wrap;" vertex="1" parent="1">
          <mxGeometry x="690" y="335.5" width="310" height="94.5" as="geometry" />
        </mxCell>
        <mxCell id="Kli_sDknE5q05ekALt0p-100" value="" style="endArrow=open;endSize=12;dashed=1;html=1;rounded=0;exitX=0.5;exitY=1;exitDx=0;exitDy=0;entryX=0.5;entryY=0;entryDx=0;entryDy=0;" edge="1" parent="1" source="Kli_sDknE5q05ekALt0p-95" target="Kli_sDknE5q05ekALt0p-99">
          <mxGeometry width="160" relative="1" as="geometry">
            <mxPoint x="740" y="430" as="sourcePoint" />
            <mxPoint x="845" y="350" as="targetPoint" />
          </mxGeometry>
        </mxCell>
      </root>
    </mxGraphModel>
  </diagram>
</mxfile>
